<?xml version="1.0" encoding="UTF-8" standalone="no"?>
<svg width="46px" height="42px" viewBox="0 0 46 42" version="1.1" xmlns="http://www.w3.org/2000/svg" xmlns:xlink="http://www.w3.org/1999/xlink" xmlns:sketch="http://www.bohemiancoding.com/sketch/ns">
    <!-- Generator: Sketch 3.1 (8751) - http://www.bohemiancoding.com/sketch -->
    <title>image-upload-overlay</title>
    <desc>Created with Sketch.</desc>
    <defs></defs>
    <g id="Welcome" stroke="none" stroke-width="1" fill="none" fill-rule="evenodd" sketch:type="MSPage">
        <g id="Main" sketch:type="MSArtboardGroup" transform="translate(-782.000000, -635.000000)" fill="#FFFFFF">
            <g id="content" sketch:type="MSLayerGroup" transform="translate(130.000000, 132.000000)">
                <g id="body" transform="translate(317.000000, 38.000000)">
                    <g id="form" transform="translate(170.000000, 298.000000)">
                        <g id="avatar" transform="translate(6.000000, 104.000000)">
                            <g id="image-selector" transform="translate(107.000000, 0.000000)">
                                <g id="image-upload-overlay" transform="translate(52.000000, 63.000000)">
                                    <g id="image-upload-icon" transform="translate(9.000000, 0.000000)" sketch:type="MSShapeGroup">
                                        <path d="M14.9331875,6.66755556 C10.9275625,6.66755556 7.6831875,9.85066667 7.6831875,13.7786667 C7.6831875,17.7066667 10.9275625,20.8897778 14.9331875,20.8897778 C18.9379063,20.8897778 22.1840938,17.7066667 22.1840938,13.7786667 C22.1840938,9.85066667 18.9379063,6.66755556 14.9331875,6.66755556 L14.9331875,6.66755556 Z M19.0611563,17.2488889 C17.1072813,19.4862222 13.6753125,19.744 11.3951875,17.8275556 C9.11325,15.9111111 8.85134375,12.544 10.806125,10.3075556 C12.7581875,8.07022222 16.1919688,7.81244444 18.4720938,9.72977778 C20.7513125,11.6462222 21.0159375,15.0133333 19.0611563,17.2488889 L19.0611563,17.2488889 Z" id="Fill-1"></path>
                                        <path d="M14.9331875,10.2231111 C12.9312813,10.2231111 11.3090938,11.8151111 11.3090938,13.7777778 L11.3090938,13.7786667 C11.3090938,14.024 11.5102813,14.2231111 11.7613125,14.2231111 C12.0105313,14.2231111 12.2144375,14.024 12.2144375,13.7786667 L12.2144375,13.7777778 C12.2144375,12.3057778 13.430625,11.112 14.9331875,11.112 C15.1824063,11.112 15.3872188,10.9128889 15.3872188,10.6675556 C15.3872188,10.4222222 15.1824063,10.2231111 14.9331875,10.2231111" id="Fill-2"></path>
                                        <path d="M27.1603125,5.81422222 L23.232625,5.17155556 L21.9883438,2.11911111 C21.572375,1.10133333 20.5809375,0.444444444 19.4653438,0.444444444 L10.4019375,0.444444444 C9.2854375,0.444444444 8.294,1.10133333 7.87621875,2.12088889 L6.63375,5.17244444 L2.7060625,5.81511111 C1.38928125,6.02844444 0.43409375,7.13422222 0.43409375,8.44444444 L0.43409375,21.7768889 C0.43409375,23.2471111 1.653,24.4435556 3.15284375,24.4435556 L26.7144375,24.4435556 C28.213375,24.4435556 29.4331875,23.2471111 29.4331875,21.7768889 L29.4331875,8.44444444 C29.4331875,7.13422222 28.4770938,6.02844444 27.1603125,5.81422222 L27.1603125,5.81422222 Z M27.6215938,21.7768889 C27.6215938,22.2684444 27.2155938,22.6657778 26.7144375,22.6657778 L3.15284375,22.6657778 C2.65078125,22.6657778 2.2456875,22.2684444 2.2456875,21.7768889 L2.2456875,8.44444444 C2.2456875,8.00977778 2.5665,7.63911111 3.00421875,7.568 L7.93603125,6.76177778 L9.559125,2.78133333 C9.696875,2.44355556 10.030375,2.22222222 10.4019375,2.22222222 L19.4644375,2.22222222 C19.8341875,2.22222222 20.1667813,2.44355556 20.3054375,2.78133333 L21.9285313,6.76177778 L26.8630625,7.568 C27.299875,7.63911111 27.6206875,8.00977778 27.6206875,8.44444444 L27.6206875,21.7768889 L27.6215938,21.7768889 L27.6215938,21.7768889 Z" id="Fill-3"></path>
                                    </g>
                                    <text id="UPLOAD" sketch:type="MSTextLayer" font-family="Avenir Next" font-size="11" font-weight="526" sketch:alignment="middle">
                                        <tspan x="0.417" y="41">UPLOAD</tspan>
                                    </text>
                                </g>
                            </g>
                        </g>
                    </g>
                </g>
            </g>
        </g>
    </g>
</svg>